<?xml version="1.0" encoding="utf-8"?>
<!-- Generator: Adobe Illustrator 25.3.1, SVG Export Plug-In . SVG Version: 6.00 Build 0)  -->
<svg version="1.1" id="Layer_1" xmlns="http://www.w3.org/2000/svg" xmlns:xlink="http://www.w3.org/1999/xlink" x="0px" y="0px"
	 viewBox="0 0 1997.79 782.36" style="enable-background:new 0 0 1997.79 782.36;" xml:space="preserve">
<style type="text/css">
	.st0{fill:#329FD9;}
	.st1{fill:#F16533;}
	.st2{fill:#FFFFFF;}
	.st3{fill:#DB4436;}
	.st4{fill:#089C58;}
	.st5{fill:#006699;}
	.st6{fill:#F16432;}
	.st7{fill:#737374;}
</style>
<g>
	<g>
		<path class="st0" d="M205.77,487.09c-14.94,9.71-31.49,14.58-49.64,14.58c-12.01,0-23.6-2.3-34.77-6.88
			c-11.18-4.58-20.81-11.03-28.91-19.36c-8.1-8.32-14.53-17.82-19.27-28.51c-4.75-10.68-7.13-21.99-7.13-33.93V204.85h166.32
			c9.22,0,16.98-3.26,23.26-9.78c6.28-6.52,9.42-14.08,9.42-22.69c0-9.16-3.14-16.86-9.42-23.1c-6.28-6.25-14.04-9.37-23.26-9.37
			H66.05V31.68c0-9.15-3.29-16.85-9.84-23.1c-6.57-6.25-14.18-9.36-22.84-9.36c-9.22,0-16.97,3.11-23.25,9.36
			c-6.28,6.24-9.43,13.95-9.43,23.1v381.31c0,20.81,4.11,40.59,12.36,59.32c8.23,18.73,19.4,35.11,33.51,49.12
			c14.1,14.02,30.58,24.98,49.43,32.89c18.85,7.9,38.9,11.85,60.12,11.85c0.56,0,6.14-0.28,16.76-0.83
			c10.6-0.55,23.46-3.67,38.54-9.37c15.08-5.68,30.65-15.05,46.71-28.1c3.56-2.88,6.98-6.12,10.31-9.59
			c-15.43-16.12-28.66-34.34-39.19-54.2C222.9,473.19,215.19,480.97,205.77,487.09z"/>
		<path class="st0" d="M825.45,139.91c-57.27,0-109.23,22.52-147.48,59.09v-13.35c0-9.16-3.28-16.86-9.84-23.1
			c-6.57-6.24-14.18-9.36-22.83-9.36c-9.22,0-16.98,3.12-23.26,9.36c-4.07,4.05-6.68,8.77-8.11,14.05
			c36.29,34.61,61.8,80.24,71.11,131.5c18.57-59.52,74.41-102.77,140.41-102.77c81.19,0,146.98,65.39,146.98,146.04
			c0,80.66-65.79,146.05-146.98,146.05c-66.01,0-121.85-43.24-140.41-102.77c-9.42,51.87-35.44,97.98-72.41,132.73v222.49
			c0,9.16,3.28,16.87,9.84,23.12c6.55,6.24,14.17,9.37,22.83,9.37c9.21,0,16.97-3.13,23.25-9.37c6.27-6.25,9.41-13.96,9.41-23.12
			V503.77c38.26,36.56,90.21,59.09,147.48,59.09c117.54,0,212.84-94.69,212.84-211.48C1038.28,234.6,942.99,139.91,825.45,139.91z"
			/>
	</g>
	<g>
		<g>
			<path class="st1" d="M1092.86,32.52c0-9.16,3.14-16.86,9.42-23.11c6.29-6.24,14.05-9.36,23.25-9.36c8.66,0,16.27,3.12,22.84,9.36
				c6.56,6.25,9.84,13.95,9.84,23.11v497.86c0,9.17-3.14,16.87-9.41,23.12c-6.29,6.24-14.05,9.37-23.26,9.37
				c-8.65,0-16.27-3.13-22.83-9.37c-6.57-6.25-9.84-13.94-9.84-23.12V32.52z"/>
			<path class="st1" d="M1220.63,172.38c0-9.16,3.15-16.86,9.42-23.1c6.29-6.25,14.05-9.37,23.27-9.37c8.64,0,16.26,3.12,22.83,9.37
				c6.56,6.24,9.83,13.94,9.83,23.1v358c0,9.17-3.14,16.87-9.42,23.12c-6.29,6.24-14.03,9.37-23.24,9.37
				c-8.67,0-16.28-3.13-22.84-9.37c-6.57-6.25-9.85-13.94-9.85-23.12V172.38z"/>
			<path class="st1" d="M1346.73,256.05c0-17.75,3.77-33.99,11.32-48.7c7.54-14.71,17.73-27.34,30.57-37.89
				c12.85-10.54,28.29-18.65,46.3-24.35c18.01-5.68,37.63-8.53,58.86-8.53c17.04,0.56,33.51,3.05,49.44,7.49
				c13.97,4.16,28.07,10.61,42.31,19.35c14.25,8.74,26.26,21.17,36.03,37.26c3.91,7.77,5.87,14.58,5.87,20.4
				c0,8.32-3,15.68-9.01,22.05c-6.02,6.39-13.34,9.58-22,9.58c-10.06,0-18.85-4.58-26.4-13.74c-10.89-13.05-21.79-22.55-32.67-28.52
				c-10.9-5.96-25.42-8.95-43.58-8.95c-24.58,0-44.34,5.2-59.27,15.62c-14.95,10.4-22.43,23.37-22.43,38.91
				c0,20.26,7.14,34.42,21.38,42.46c14.24,8.06,34.34,12.07,60.32,12.07c20.95,0,40.92,2.71,59.91,8.12
				c19,5.41,35.48,13.53,49.45,24.35c13.96,10.83,25.06,24.15,33.3,39.97c8.24,15.83,12.36,34.28,12.36,55.36
				c0,21.65-4.12,40.45-12.36,56.41c-8.24,15.96-19.69,29.29-34.34,39.97c-14.67,10.67-31.57,18.59-50.7,23.72
				c-19.13,5.13-39.32,7.69-60.54,7.69c-4.47,0-62.27-0.85-110.82-42.04c-15.14-12.86-28-30.54-38.33-53.29
				c-1.68-4.16-2.52-8.18-2.52-12.06c0-8.6,2.99-16.17,9.01-22.69c6-6.52,13.89-9.79,23.67-9.79c6.7,0,12.64,1.87,17.81,5.62
				c5.16,3.75,9.29,8.69,12.34,14.78c7.27,17.21,19.77,30.67,37.51,40.37c17.74,9.71,35.81,14.58,54.25,14.58
				c12.01,0,23.6-1.05,34.77-3.13c11.17-2.08,20.75-5.54,28.71-10.4c7.97-4.86,14.38-11.38,19.28-19.56
				c4.88-8.18,7.33-18.25,7.33-30.19c0-24.41-8.72-41.06-26.18-49.95c-17.46-8.88-38.76-13.31-63.9-13.31
				c-21.22,0-40.85-1.94-58.86-5.83c-18.01-3.88-33.45-10.55-46.3-19.98c-12.84-9.43-23.03-21.64-30.57-36.63
				C1350.5,297.69,1346.73,278.82,1346.73,256.05z"/>
			<path class="st1" d="M1696.56,31.68c0-9.15,3.14-16.85,9.43-23.1c6.29-6.25,14.03-9.36,23.25-9.36c8.65,0,16.27,3.11,22.83,9.36
				c6.57,6.24,9.85,13.95,9.85,23.1v108.23h166.31c9.22,0,16.97,3.12,23.26,9.37c6.29,6.24,9.42,13.94,9.42,23.1
				c0,8.61-3.13,16.18-9.42,22.69c-6.29,6.53-14.04,9.78-23.26,9.78h-166.31v208.14c0,11.93,2.36,23.25,7.12,33.93
				c4.74,10.69,11.15,20.19,19.27,28.51c8.09,8.33,17.74,14.78,28.91,19.36c11.17,4.58,22.76,6.88,34.77,6.88
				c18.15,0,34.7-4.86,49.66-14.58c14.93-9.71,26.04-23.17,33.3-40.37c3.07-6.1,7.13-11.04,12.16-14.78
				c5.02-3.75,11.03-5.62,18.01-5.62c9.21,0,16.96,3.27,23.25,9.79c6.27,6.52,9.42,14.09,9.42,22.69c0,3.88-0.84,7.9-2.51,12.06
				c-11.46,24.98-25.22,44-41.27,57.03c-16.06,13.05-31.63,22.41-46.72,28.1c-15.08,5.7-27.94,8.82-38.53,9.37
				c-10.63,0.55-16.22,0.83-16.77,0.83c-21.23,0-41.26-3.95-60.12-11.85c-18.85-7.92-35.34-18.87-49.44-32.89
				c-14.11-14.01-25.28-30.39-33.51-49.12c-8.25-18.73-12.36-38.51-12.36-59.32V31.68z"/>
		</g>
		<path class="st1" d="M1286.36,92.75c0,18.14-14.8,32.84-33.05,32.84c-18.26,0-33.06-14.7-33.06-32.84
			c0-18.14,14.8-32.84,33.06-32.84C1271.56,59.92,1286.36,74.62,1286.36,92.75z"/>
	</g>
	<g>
		<ellipse class="st2" cx="444.66" cy="350.13" rx="115.59" ry="114.85"/>
		<path class="st3" d="M656.05,351.7c0-22.87-3.71-44.86-10.48-65.48l-95.26,30.76c3.61,10.93,5.62,22.58,5.62,34.72
			c0,37-18.22,69.7-46.15,89.98l58.9,80.55C621.62,483.87,656.05,421.8,656.05,351.7z"/>
		<path class="st4" d="M443.75,240.23c49.74,0,91.86,32.2,106.55,76.75l95.26-30.76c-27.73-84.44-107.58-145.47-201.82-145.47h-0.01
			L443.75,240.23L443.75,240.23z"/>
		<path class="st5" d="M443.75,463.17c-24.72,0-47.49-8.04-66.03-21.49l-58.9,80.56c35.06,25.4,78.22,40.42,124.93,40.42
			c46.71,0,89.87-15.02,124.92-40.42l-58.9-80.55C491.24,455.13,468.47,463.17,443.75,463.17z"/>
		<path class="st0" d="M331.57,351.7c0-12.14,2.02-23.79,5.62-34.72l-95.27-30.76c-6.77,20.61-10.48,42.61-10.48,65.48
			c0,70.09,34.43,132.16,87.38,170.53l58.9-80.56C349.79,421.4,331.57,388.7,331.57,351.7z"/>
		<path class="st6" d="M443.75,240.23v-99.49c-94.24,0-174.09,61.04-201.83,145.48l95.27,30.76
			C351.89,272.44,394,240.23,443.75,240.23z"/>
	</g>
	<g>
		<g>
			<path class="st7" d="M2.91,733.52l16.88-7.26c1.6,5.39,4.53,9.5,8.8,12.34c4.27,2.83,9.71,4.25,16.35,4.25
				c6.28,0,11.27-1.62,14.97-4.87c3.7-3.24,5.55-7.59,5.55-13.04c0-7.1-6.34-13.42-19.01-18.98c-1.78-0.83-3.14-1.43-4.09-1.82
				c-14.34-6.49-23.89-12.36-28.65-17.61c-4.77-5.25-7.15-11.67-7.15-19.27c0-9.85,3.6-17.82,10.79-23.93
				c7.2-6.11,16.63-9.16,28.3-9.16c9.6,0,17.62,1.72,24.08,5.16c6.46,3.44,10.93,8.37,13.42,14.81l-16.53,7.92
				c-2.61-3.79-5.46-6.57-8.57-8.33c-3.11-1.76-6.68-2.64-10.71-2.64c-5.69,0-10.2,1.38-13.55,4.12c-3.35,2.75-5.02,6.44-5.02,11.06
				c0,7.26,7.34,14.03,22.03,20.3c1.12,0.5,2.01,0.88,2.67,1.16c12.85,5.5,21.68,10.88,26.48,16.13c4.8,5.25,7.2,11.81,7.2,19.68
				c0,11.44-3.88,20.53-11.64,27.27c-7.76,6.74-18.25,10.11-31.45,10.11c-11.08,0-20.16-2.37-27.23-7.1
				C9.74,749.08,5.1,742.32,2.91,733.52z"/>
			<path class="st7" d="M231.46,757.69l-14.75-31.11h-51.53l-15.1,31.11h-22.21l62.99-125.58l62.91,125.58H231.46z M173,710.25
				h36.25l-13.33-27.56c-0.77-1.76-1.57-3.78-2.4-6.06c-0.83-2.28-1.66-4.83-2.49-7.63c-0.71,2.64-1.47,5.1-2.27,7.39
				c-0.8,2.28-1.61,4.39-2.44,6.31L173,710.25z"/>
			<path class="st7" d="M339.45,762.39L281.43,636.9h21.95l29.14,64.35c1.72,3.74,3.14,7.19,4.26,10.36
				c1.12,3.16,2.01,6.17,2.67,9.03c0.77-3.02,1.75-6.16,2.93-9.41c1.18-3.25,2.58-6.57,4.18-9.98l29.05-64.35h21.86L339.45,762.39z"
				/>
			<path class="st7" d="M445.92,757.69V636.9h72.59v16.67h-51.44v30.28h51.44v17.24h-51.44v39.03h51.44v17.57H445.92z"/>
		</g>
	</g>
	<g>
		<path class="st7" d="M788.29,751.79v-55.28L743.38,631h22.77l27.97,41.01c0.67,1.05,1.5,2.42,2.51,4.13
			c1,1.71,2.02,3.55,3.05,5.53c0.85-1.92,1.75-3.74,2.69-5.45c0.94-1.7,1.93-3.27,2.96-4.7l28.7-40.51h21.68l-45.91,65.51v55.28
			H788.29z"/>
		<path class="st7" d="M1036.46,691.64c0,8.58-1.78,16.69-5.33,24.34c-3.55,7.65-8.73,14.47-15.53,20.46
			c-6.86,6-14.61,10.59-23.23,13.78c-8.62,3.19-17.67,4.79-27.15,4.79c-9.6,0-18.75-1.61-27.46-4.83
			c-8.72-3.22-16.41-7.8-23.09-13.74c-6.8-5.99-11.96-12.79-15.49-20.38c-3.52-7.59-5.28-15.73-5.28-24.42
			c0-8.63,1.76-16.78,5.28-24.42c3.52-7.65,8.68-14.49,15.49-20.54c6.8-5.99,14.51-10.56,23.14-13.7c8.62-3.14,17.76-4.7,27.42-4.7
			c9.6,0,18.69,1.57,27.28,4.7c8.59,3.13,16.29,7.7,23.09,13.7c6.8,6.11,11.98,12.99,15.53,20.67
			C1034.69,675.02,1036.46,683.12,1036.46,691.64z M1013.87,691.64c0-6.11-1.23-11.91-3.69-17.41c-2.46-5.5-6-10.4-10.61-14.69
			c-4.49-4.23-9.7-7.49-15.62-9.78c-5.92-2.28-12.16-3.42-18.72-3.42c-6.56,0-12.8,1.13-18.72,3.38c-5.92,2.26-11.19,5.53-15.8,9.82
			c-4.62,4.24-8.14,9.1-10.57,14.6c-2.43,5.5-3.64,11.33-3.64,17.49c0,6.11,1.21,11.88,3.64,17.33c2.43,5.45,5.95,10.31,10.57,14.6
			c4.61,4.29,9.87,7.56,15.76,9.82c5.89,2.26,12.14,3.38,18.77,3.38c6.5,0,12.68-1.13,18.54-3.38c5.86-2.25,11.13-5.53,15.8-9.82
			c4.61-4.29,8.15-9.17,10.61-14.65C1012.64,703.46,1013.87,697.69,1013.87,691.64z"/>
		<path class="st7" d="M1096.98,631h21.41v73.35c0,10.89,2.78,19.07,8.34,24.55c5.56,5.47,13.86,8.21,24.91,8.21
			c10.99,0,19.27-2.74,24.82-8.21c5.56-5.47,8.33-13.66,8.33-24.55V631h21.68v75.16c0,16.34-4.55,28.56-13.66,36.67
			c-9.11,8.11-22.84,12.17-41.17,12.17c-18.34,0-32.04-4.04-41.08-12.13c-9.05-8.09-13.57-20.32-13.57-36.72V631z"/>
		<path class="st7" d="M1292.86,697.75v54.04h-20.31V631h30.24c8.87,0,15.75,0.52,20.63,1.57c4.89,1.05,9.06,2.78,12.52,5.2
			c4.13,2.92,7.32,6.68,9.57,11.3c2.25,4.62,3.37,9.68,3.37,15.18c0,9.68-2.58,17.26-7.74,22.73c-5.16,5.47-12.78,8.76-22.87,9.86
			l45.91,54.95h-24.5l-44.36-54.04H1292.86z M1294.22,682.48h3.92c11.48,0,19.1-1.21,22.86-3.63c3.76-2.42,5.65-6.71,5.65-12.87
			c0-6.65-2.02-11.34-6.06-14.07c-4.04-2.72-11.52-4.08-22.46-4.08h-3.92V682.48z"/>
		<path class="st7" d="M1548.8,647.67v104.12h-21.68V647.67h-35.44V631h92.37v16.67H1548.8z"/>
		<path class="st7" d="M1637.19,751.79V631h21.68v120.79H1637.19z"/>
		<path class="st7" d="M1834.98,692.14c-0.24-0.93-0.64-3.52-1.18-7.76c-0.49-3.52-0.91-6.44-1.28-8.75
			c-0.55,2.75-1.32,5.5-2.32,8.25c-1,2.75-2.26,5.56-3.78,8.42l-34.89,64.36l-34.89-65.68c-1.46-2.69-2.72-5.31-3.78-7.84
			c-1.06-2.53-1.99-5.03-2.78-7.51c-0.06,2.53-0.29,5.18-0.68,7.96c-0.4,2.78-0.99,5.68-1.78,8.7l-14.3,59.49h-19.95l31.52-125.91
			l39.35,76.24c0.61,1.21,1.53,3.22,2.78,6.02c1.24,2.81,2.75,6.27,4.51,10.4c1.27-3.47,3.28-7.87,6.01-13.2
			c0.73-1.43,1.27-2.53,1.64-3.3l38.44-76.15l32.25,125.91h-20.13L1834.98,692.14z"/>
		<path class="st7" d="M1923.37,751.79V631h74.42v16.67h-52.74v30.28h52.74v17.24h-52.74v39.03h52.74v17.57H1923.37z"/>
	</g>
</g>
</svg>
